<?xml version="1.0" encoding="utf-8"?>
<!-- Generator: Adobe Illustrator 18.1.0, SVG Export Plug-In . SVG Version: 6.00 Build 0)  -->
<svg version="1.0" id="图层1" xmlns="http://www.w3.org/2000/svg" xmlns:xlink="http://www.w3.org/1999/xlink" x="0px" y="0px"
	 viewBox="0 0 595.3 841.9" enable-background="new 0 0 595.3 841.9" xml:space="preserve">
<path fill="none" stroke="#FF00FF" stroke-width="1.2" stroke-linecap="round" stroke-linejoin="round" stroke-miterlimit="10" d="
	M262.3,520.3c-50.9,6.1-102.7,8.5-155.5,7.3 M113.6,571.6c15.5,2.6,31.8,3.4,48.8,2 M104,519l3.6-16 M185.5,386.5l7.2,112
	c28.7-7.6,50.2-11.4,64.4-11.4c9.5-0.1,14.9,1.4,16.3,4.4c1.2,2.6-1.8,8.8-9,18.2c-1.8-7.1-4.2-14.6-7.3-22.7 M201.6,579.5
	c21.8-2.8,40.4-6,55.8-10 M264.1,438.1l10.9,29.8 M287.8,388.2c-8,7.6-15.6,15.5-22.6,23.5 M257.9,420.9l6.2,17.3
	c2-6.5,5-12.5,9.2-17.9c-3.7-2.6-6.4-5.5-8.2-8.5C263,414.3,260.6,417.3,257.9,420.9l-25.6-69.6 M243.4,344.2
	c-1.8-1.3-2.9-3.5-3.5-6.4c-0.6-3-0.5-6.4,0.6-9.8c-31-7.8-70.1-7.4-117.5,1.3 M155,411.7c4.9-4.7,15.1-13.1,30.5-25.2
	c9.5-7.4,18.6-14.5,27.5-21.2c9.1-6.8,15.6-11.5,19.3-14l7.6-4.9 M267.1,308.3c-6.1-1.1-11.6,0.2-16.3,4.2
	c-4.3,3.5-7.8,8.6-10.3,15.5c-0.4,2.3,0.4,4,2.2,4.8c1.8,0.8,3.2,0.6,4.6-1c5.9-7.3,14.3-10.2,25.3-8.6 M254,260.1
	c-4.1,15.2-10,28.7-17.8,40.6c4.4-2.3,9.2-5.2,14.3-8.6c2.4-1.6,7.1-4.8,13.9-9.8c4.9-3.5,8.5-7,10.7-10.4c2.9-4.6,7.1-7.2,12.6-7.9
	c5.6-0.6,9.6,1.3,11.6,6 M89.8,426.7c-1.4,2.5-3.2,4.8-5.4,6.8c6,3.7,9,6,8.9,6.8 M68.4,412.7c6.6,5.6,13.8,10.3,21.4,14
	c1.7,0.8,3.5,1.6,5.5,2.4 M116.4,330.5c-5.2,1.1-9.7,2-13.7,2.9 M115,357.5l1.8,3.2 M85.4,516c7.1-5.9,14.5-10.2,22.2-13
	c14.2-5,29.3-4.7,45.4,1.2l2-92.5l-4.1,3.8c-12.7-18.1-24.1-36.4-34.2-54.8l-0.1,0.5l-0.2,0.5l-0.2,0.5l-0.2,0.4l-0.1,0.5l-0.2,0.4
	l-0.2,0.5l-0.2,0.5l-0.1,0.4l-0.2,0.4l-0.1,0.5l-0.2,0.4c-7.9,17.5-14.3,38.6-19.1,63.2l-2,11.3v0.1c-2.3,13.2-4.1,27.4-5.4,42.6
	 M108.4,344.7l-5.6-11.3c-3.5-1.3-7-1.6-10.4-0.6 M97.1,302.7c-2.3-6.4-1.2-12.4,3.2-18 M80.5,267c1.1,11,3.8,19.7,8.4,25.9
	c4.9-18.6,12.4-37.1,22.1-55.7c9.4-17.6,21.7-36.6,37-56.9c-3.6,14.6-5,28.1-4.4,40.3c0.6,12.4,3.4,22.7,8.3,31
	c0.8-6.4,2.4-13.2,4.8-20.5c2.6-8.3,5.6-15.1,9.1-20.8c2.2,5.3,4.6,10.3,7.1,15c3.1,5.9,6.2,10.6,9.2,13.9
	c5.6-8,10.7-16.6,15.4-25.4c4.4-8.6,8.9-18.2,13.1-28.9c2,27.5,9.1,49,21.2,64.7c3.2-0.2,6.6-1.7,9.8-4.4
	c6.1,4.2,10.3,9.1,12.5,14.9c1.7-6.1,3.1-12.5,4.2-19.1 M237.2,114.4c6.4,9.5,9.1,17.8,8.2,25.1c10.4-3.2,20-3.8,28.8-1.8
	c-2.5,3.7-5.9,7-10.2,10c37,27,54.7,62.2,53.4,105.5c-2-2.9-4.6-4.7-7.3-5.3c1.1,9-2.5,16.3-10.7,22c2.8,6.1,0.7,13.4-6.2,22
	c-7.1,8.6-15.8,14.2-26,16.6c8.4,1.4,14.5,2.2,18.4,2.3c5.3,0.1,10.6-0.6,15.7-2.3c-3.6,21.7-12.1,35.8-25.4,42.2
	c-6.1,1.3-11.6,1.6-16.7,0.7c-5.5-1.1-10.8-3.4-15.7-7.1l-3.5,2.2c20.5,13,38.4,25.2,53.6,36.6l-5.8,5.3c5,3.8,9.2,7.3,12.6,10.3
	c4.1,3.8,7.7,7.7,10.7,11.6c1.7,2,2.5,4.8,2.5,8c0,3.2-1,6.2-2.8,8.8c-10.9,15.6-22.9,29.3-35.8,40.9l8.3,22.6
	c-4.7,7-10.9,13.4-18.8,19.3c0.8,3.5,1.6,6.8,2,10.1l-4.2,0.5c2.5,16,4.1,31.4,4.7,46.6c-3,0.8-6.2,1.8-9.6,2.6
	c9.2,41.2,17,81.5,23.3,121c4.1,0.7,6,3.2,5.9,7.6c-17.4,1.8-37,1-58.7-2.6c-8-39-16.8-77.6-26.3-115.9c-5.4,0.6-10,1.1-13.6,1.4
	c-1.9-10.8-3-22-3.4-33.6l-16.1-1.3l-0.1,27l-6,0.6c5.6,41.5,7.4,82.7,5.4,123.6c-14.3,3.2-30.6,3.5-49,0.8
	c-0.8-2.8,0.5-4.9,4.1-6.4c-1.3-39.2-4.4-79.3-9.4-120.1l-11.9-2.4c0.6-13.8,2.3-27.7,5-41.5l-4.7-0.2l1.9-8.4
	c-6.2,0.4-12.5-0.7-18.6-3c0.6-11.4,1.4-22.4,2.4-32.9c-13.2-7.8-26.3-19-39.2-33.4c-1.6-1.6-2.4-3.5-2.5-5.8
	c-0.2-2,0.1-3.8,1.1-5.4c5.2-8.5,12.2-17.2,21.2-25.9c-2.5-2.2-4.9-4.4-7.2-7c16.1-24.1,34-40.2,53.8-48.2c-2.8-5-4.9-9.4-6.6-12.8
	c-7.6,6.4-15.4,6.8-23.3,1.2c-6.6-4.6-13.6-13.4-20.9-26.8c7.8,3,14.2,4,19.3,2.6c0.4-0.1,2.2-0.7,5.5-1.8c2.2-0.8,4.1-1.2,5.8-1.1
	c4.4,0.1,8.6,1.4,12.5,4.1c2.3,1.6,5.3,4.1,9.1,7.6l6.6-1.2c-14.4-9.5-23-18.4-25.9-26.6c-8.4,0-16-2.3-22.6-6.8
	c-6.8-4.6-10.3-10-10.4-16.1c-0.1-3.5,1.7-6.7,5.4-9.7c3.8-3,7.6-4.1,11-3c-0.4-4.7-0.5-9.7-0.2-15.1c-3.8,2.5-6.4,5.5-7.7,8.8
	c-5.8-8.4-9.2-19.4-10.4-33.2c-5.4,4.8-9.5,10-12.1,15.4c-2.8-11.2,0.5-24.8,10-41.2c9.5-16.4,22.7-31.3,39.7-44.6
	c18.7-14.8,38.6-24.6,59.6-29.5c24.2-5.8,47.6-4.3,70.2,4.3C232.3,128.1,235,122.3,237.2,114.4"/>
</svg>
